<svg width="165" height="54" viewBox="0 0 165 54" fill="none" xmlns="http://www.w3.org/2000/svg">
<path d="M35.1341 38.2424C30.5324 39.9482 23.8232 39.1265 20.9862 37.8145C18.1411 36.4979 14.562 40.0019 18.6966 41.6517C22.8304 43.3011 29.8089 42.9919 35.1369 41.6988" fill="#F5F5F5"/>
<path d="M35.1341 38.2424C30.5324 39.9482 23.8232 39.1265 20.9862 37.8145C18.1411 36.4979 14.562 40.0019 18.6966 41.6517C22.8304 43.3011 29.8089 42.9919 35.1369 41.6988" stroke="black" stroke-width="2" stroke-linecap="round" stroke-linejoin="round"/>
<path d="M37.8815 47.3242L35.8135 48.4491L34.3293 44.2961L36.3464 34.6176L33.2996 25.9291L37.4103 18.1099L49.3209 17.8582L51.8387 19.5665L54.5802 21.3724L55.4769 23.8634L54.3602 25.9159L53.2914 28.1146L54.0284 30.4107L52.1277 31.1447L48.7777 37.4001L42.8556 43.999L40.4187 45.482L37.8815 47.3242Z" fill="#F5F5F5"/>
<path d="M50.3828 17.2224C54.1701 25.4058 53.1224 34.52 45.8759 44.8277C51.916 45.801 48.1171 50.2002 40.6762 45.7103" fill="#F5F5F5"/>
<path d="M50.3828 17.2224C54.1701 25.4058 53.1224 34.52 45.8759 44.8277C51.916 45.801 48.1171 50.2002 40.6762 45.7103" stroke="black" stroke-width="2" stroke-linecap="round" stroke-linejoin="round"/>
<path d="M33.7819 25.9288C36.3281 34.1986 36.4591 41.9519 32.1789 48.7615C36.0428 55.3373 40.1209 50.4983 36.9317 48.253" fill="#F5F5F5"/>
<path d="M33.7819 25.9288C36.3281 34.1986 36.4591 41.9519 32.1789 48.7615C36.0428 55.3373 40.1209 50.4983 36.9317 48.253" stroke="black" stroke-width="2" stroke-linecap="round" stroke-linejoin="round"/>
<path d="M48.2151 33.199C46.8229 39.1425 42.9295 43.8182 36.9671 48.227Z" fill="#F5F5F5"/>
<path d="M48.2151 33.199C46.8229 39.1425 42.9295 43.8182 36.9671 48.227" stroke="black" stroke-width="2" stroke-linecap="round" stroke-linejoin="round"/>
<path d="M51.1031 18.9457C55.864 21.0623 56.8238 24.1137 53.5232 28.2126C55.4823 30.4587 53.9137 31.6409 52.2063 30.6082" stroke="black" stroke-width="2" stroke-linecap="round" stroke-linejoin="round"/>
<path d="M33.5049 28.909L39.1542 30.7619C39.6103 41.4606 30.2687 37.6559 36.0809 33.5974C20.814 32.239 21.0906 28.7213 35.775 19.7735L45.8531 16.8344L47.9802 19.3735" fill="#F5F5F5"/>
<path d="M33.5049 28.909L39.1542 30.7619C39.6103 41.4606 30.2687 37.6559 36.0809 33.5974C20.814 32.239 21.0906 28.7213 35.775 19.7735L45.8531 16.8344L47.9802 19.3735" stroke="black" stroke-width="2" stroke-linecap="round" stroke-linejoin="round"/>
<path d="M41.8332 24.507L31.9328 29.7588Z" fill="#F5F5F5"/>
<path d="M41.8332 24.507L31.9328 29.7588" stroke="black" stroke-width="2" stroke-linecap="round" stroke-linejoin="round"/>
<path d="M15.9239 4.19778C15.309 7.39001 14.5051 9.16392 10.5159 10.9143C7.1965 12.3442 1.38919 13.8429 0.513625 17.5907C5.00403 19.9765 11.0996 22.1031 20.3948 19.4509C27.7064 17.3646 32.6783 21.548 40.951 22.0702C38.9454 17.4552 37.6082 15.2461 35.1809 13.6221C31.126 13.4162 28.6016 8.54653 24.6513 6.57994C21.3398 4.93136 20.4526 4.80934 15.9239 4.19778Z" fill="black"/>
<path d="M32.7778 2.84816C32.7518 2.57796 32.9969 2.47706 33.2189 2.66657L35.48 4.59684L37.7412 6.52715C37.9632 6.71666 37.9956 7.05438 37.7995 7.13511L35.8024 7.95711L33.8053 8.77916C33.6092 8.85985 33.3317 8.62294 33.3058 8.35274L33.0418 5.60043L32.7778 2.84816Z" fill="#F5F5F5"/>
<path d="M32.7778 2.84816C32.7518 2.57796 32.9969 2.47706 33.2189 2.66657L35.48 4.59684L37.7412 6.52715C37.9632 6.71666 37.9956 7.05438 37.7995 7.13511L35.8024 7.95711L33.8053 8.77916C33.6092 8.85985 33.3317 8.62294 33.3058 8.35274L33.0418 5.60043L32.7778 2.84816Z" stroke="black" stroke-width="2" stroke-miterlimit="10" stroke-linecap="round"/>
<path d="M43.9032 1.28019C43.9997 1.02063 44.284 1.00584 44.415 1.25359L45.7494 3.77692L47.0838 6.30017C47.2148 6.54792 47.0942 6.8724 46.8668 6.88426L44.5499 7.00466L42.2331 7.12515C42.0056 7.13696 41.8418 6.82727 41.9383 6.56771L42.9207 3.92401L43.9032 1.28019Z" fill="#F5F5F5"/>
<path d="M43.9032 1.28019C43.9997 1.02063 44.284 1.00584 44.415 1.25359L45.7494 3.77692L47.0838 6.30017C47.2148 6.54792 47.0942 6.8724 46.8668 6.88426L44.5499 7.00466L42.2331 7.12515C42.0056 7.13696 41.8418 6.82727 41.9383 6.56771L42.9207 3.92401L43.9032 1.28019Z" stroke="black" stroke-width="2" stroke-miterlimit="10" stroke-linecap="round"/>
<path d="M53.1317 13.0327C53.0355 18.0505 48.3016 22.0501 42.5581 21.9661C36.8146 21.8821 32.2365 17.7463 32.3327 12.7285C32.4288 7.7107 37.1628 3.71107 42.9063 3.79507C48.6498 3.87908 53.2278 8.01489 53.1317 13.0327Z" fill="#F5F5F5"/>
<path d="M53.1317 13.0327C53.0355 18.0505 48.3016 22.0501 42.5581 21.9661C36.8146 21.8821 32.2365 17.7463 32.3327 12.7285C32.4288 7.7107 37.1628 3.71107 42.9063 3.79507C48.6498 3.87908 53.2278 8.01489 53.1317 13.0327Z" stroke="black" stroke-width="2" stroke-linecap="round" stroke-linejoin="round"/>
<path d="M40.5902 7.91428C43.1114 13.5213 47.1678 11.9682 44.1248 7.33081" stroke="black" stroke-width="2" stroke-miterlimit="10" stroke-linecap="round"/>
<path d="M45.4714 7.10622C47.5745 12.6338 51.0785 10.7306 47.3276 6.54707" stroke="black" stroke-width="2" stroke-miterlimit="10" stroke-linecap="round"/>
<path d="M47.5793 12.3896L48.8819 15.0016" stroke="black" stroke-width="2" stroke-miterlimit="10" stroke-linecap="round"/>
<path d="M50.7585 15.7586L48.9904 15.1535L48.274 16.9926" stroke="black" stroke-width="2" stroke-miterlimit="10" stroke-linecap="round"/>
<path d="M74.4091 23.6562C74.3097 23.3106 74.17 23.0052 73.9901 22.7401C73.8101 22.4702 73.59 22.2429 73.3295 22.0582C73.0739 21.8688 72.7803 21.7244 72.4489 21.625C72.1222 21.5256 71.7599 21.4759 71.3622 21.4759C70.6188 21.4759 69.9654 21.6605 69.402 22.0298C68.8433 22.3991 68.4077 22.9366 68.0952 23.642C67.7827 24.3428 67.6264 25.1998 67.6264 26.2131C67.6264 27.2263 67.7803 28.0881 68.0881 28.7983C68.3958 29.5085 68.8314 30.0507 69.3949 30.4247C69.9583 30.794 70.6236 30.9787 71.3906 30.9787C72.0866 30.9787 72.6809 30.8556 73.1733 30.6094C73.6705 30.3584 74.0492 30.0057 74.3097 29.5511C74.5748 29.0966 74.7074 28.5592 74.7074 27.9389L75.3324 28.0312H71.5824V25.7159H77.669V27.5483C77.669 28.8267 77.3991 29.9252 76.8594 30.8438C76.3196 31.7576 75.5762 32.4631 74.6293 32.9602C73.6823 33.4527 72.598 33.6989 71.3764 33.6989C70.0128 33.6989 68.8149 33.3982 67.7827 32.7969C66.7505 32.1908 65.9455 31.3314 65.3679 30.2188C64.795 29.1013 64.5085 27.7756 64.5085 26.2415C64.5085 25.0625 64.679 24.0114 65.0199 23.0881C65.3655 22.16 65.8485 21.3741 66.4688 20.7301C67.089 20.0862 67.8111 19.5961 68.6349 19.2599C69.4588 18.9238 70.3513 18.7557 71.3125 18.7557C72.1364 18.7557 72.9034 18.8764 73.6136 19.1179C74.3239 19.3546 74.9536 19.6908 75.5028 20.1264C76.0568 20.562 76.509 21.0805 76.8594 21.6818C77.2098 22.2784 77.4347 22.9366 77.5341 23.6562H74.4091ZM84.8938 33.7131C83.7717 33.7131 82.8058 33.4858 81.9961 33.0312C81.1912 32.572 80.5709 31.9233 80.1353 31.0852C79.6997 30.2424 79.4819 29.2457 79.4819 28.0952C79.4819 26.973 79.6997 25.9882 80.1353 25.1406C80.5709 24.2931 81.1841 23.6326 81.9748 23.1591C82.7702 22.6856 83.703 22.4489 84.7731 22.4489C85.4928 22.4489 86.1628 22.5649 86.783 22.7969C87.408 23.0241 87.9525 23.3674 88.4165 23.8267C88.8853 24.286 89.2499 24.8636 89.5103 25.5597C89.7707 26.2509 89.9009 27.0606 89.9009 27.9886V28.8196H80.6893V26.9446H87.0529C87.0529 26.509 86.9582 26.1231 86.7688 25.7869C86.5794 25.4508 86.3166 25.188 85.9805 24.9986C85.649 24.8045 85.2631 24.7074 84.8228 24.7074C84.3635 24.7074 83.9563 24.8139 83.6012 25.027C83.2508 25.2353 82.9762 25.517 82.7773 25.8722C82.5785 26.2225 82.4767 26.6132 82.4719 27.044V28.8267C82.4719 29.3665 82.5714 29.8329 82.7702 30.2259C82.9738 30.6188 83.2603 30.9219 83.6296 31.1349C83.9989 31.348 84.4369 31.4545 84.9435 31.4545C85.2797 31.4545 85.5875 31.4072 85.8668 31.3125C86.1462 31.2178 86.3853 31.0758 86.5842 30.8864C86.783 30.697 86.9345 30.465 87.0387 30.1903L89.837 30.375C89.695 31.0473 89.4038 31.6345 88.9634 32.1364C88.5278 32.6335 87.9644 33.0218 87.2731 33.3011C86.5865 33.5758 85.7934 33.7131 84.8938 33.7131ZM96.8469 33.7131C95.7248 33.7131 94.7589 33.4858 93.9492 33.0312C93.1443 32.572 92.524 31.9233 92.0884 31.0852C91.6528 30.2424 91.435 29.2457 91.435 28.0952C91.435 26.973 91.6528 25.9882 92.0884 25.1406C92.524 24.2931 93.1372 23.6326 93.9279 23.1591C94.7234 22.6856 95.6561 22.4489 96.7262 22.4489C97.4459 22.4489 98.1159 22.5649 98.7362 22.7969C99.3612 23.0241 99.9057 23.3674 100.37 23.8267C100.838 24.286 101.203 24.8636 101.463 25.5597C101.724 26.2509 101.854 27.0606 101.854 27.9886V28.8196H92.6424V26.9446H99.006C99.006 26.509 98.9113 26.1231 98.7219 25.7869C98.5326 25.4508 98.2698 25.188 97.9336 24.9986C97.6022 24.8045 97.2163 24.7074 96.7759 24.7074C96.3166 24.7074 95.9094 24.8139 95.5543 25.027C95.204 25.2353 94.9293 25.517 94.7305 25.8722C94.5316 26.2225 94.4298 26.6132 94.4251 27.044V28.8267C94.4251 29.3665 94.5245 29.8329 94.7234 30.2259C94.927 30.6188 95.2134 30.9219 95.5827 31.1349C95.9521 31.348 96.39 31.4545 96.8967 31.4545C97.2328 31.4545 97.5406 31.4072 97.82 31.3125C98.0993 31.2178 98.3384 31.0758 98.5373 30.8864C98.7362 30.697 98.8877 30.465 98.9918 30.1903L101.79 30.375C101.648 31.0473 101.357 31.6345 100.917 32.1364C100.481 32.6335 99.9175 33.0218 99.2262 33.3011C98.5397 33.5758 97.7466 33.7131 96.8469 33.7131ZM106.57 30.3608L106.577 26.7315H107.017L110.512 22.5909H113.985L109.29 28.0739H108.573L106.57 30.3608ZM103.828 33.5V18.9545H106.854V33.5H103.828ZM110.647 33.5L107.436 28.7486L109.453 26.6108L114.191 33.5H110.647Z" fill="black"/>
<path d="M118.665 33.5L114.688 18.9545H116.478L119.517 30.8011H119.659L122.756 18.9545H124.745L127.841 30.8011H127.983L131.023 18.9545H132.813L128.836 33.5H127.017L123.807 21.9091H123.694L120.483 33.5H118.665ZM138.196 33.7273C137.212 33.7273 136.347 33.4929 135.604 33.0241C134.865 32.5554 134.288 31.8996 133.871 31.0568C133.459 30.214 133.253 29.2292 133.253 28.1023C133.253 26.9659 133.459 25.974 133.871 25.1264C134.288 24.2789 134.865 23.6207 135.604 23.152C136.347 22.6832 137.212 22.4489 138.196 22.4489C139.181 22.4489 140.043 22.6832 140.782 23.152C141.525 23.6207 142.103 24.2789 142.515 25.1264C142.931 25.974 143.14 26.9659 143.14 28.1023C143.14 29.2292 142.931 30.214 142.515 31.0568C142.103 31.8996 141.525 32.5554 140.782 33.0241C140.043 33.4929 139.181 33.7273 138.196 33.7273ZM138.196 32.2216C138.944 32.2216 139.56 32.0298 140.043 31.6463C140.526 31.2628 140.883 30.7585 141.115 30.1335C141.347 29.5085 141.463 28.8314 141.463 28.1023C141.463 27.3731 141.347 26.6937 141.115 26.0639C140.883 25.4342 140.526 24.9252 140.043 24.5369C139.56 24.1487 138.944 23.9545 138.196 23.9545C137.448 23.9545 136.833 24.1487 136.35 24.5369C135.867 24.9252 135.509 25.4342 135.277 26.0639C135.045 26.6937 134.929 27.3731 134.929 28.1023C134.929 28.8314 135.045 29.5085 135.277 30.1335C135.509 30.7585 135.867 31.2628 136.35 31.6463C136.833 32.0298 137.448 32.2216 138.196 32.2216ZM145.698 33.5V22.5909H147.317V24.2386H147.431C147.63 23.6989 147.99 23.2609 148.511 22.9247C149.031 22.5885 149.619 22.4205 150.272 22.4205C150.395 22.4205 150.549 22.4228 150.734 22.4276C150.918 22.4323 151.058 22.4394 151.153 22.4489V24.1534C151.096 24.1392 150.966 24.1179 150.762 24.0895C150.563 24.0563 150.353 24.0398 150.13 24.0398C149.6 24.0398 149.126 24.151 148.71 24.3736C148.298 24.5914 147.971 24.8944 147.729 25.2827C147.493 25.6662 147.374 26.1042 147.374 26.5966V33.5H145.698ZM156.927 33.7273C156.018 33.7273 155.215 33.4976 154.519 33.0384C153.823 32.5743 153.279 31.9209 152.886 31.0781C152.493 30.2306 152.296 29.2292 152.296 28.0739C152.296 26.928 152.493 25.9337 152.886 25.0909C153.279 24.2481 153.826 23.5971 154.526 23.1378C155.227 22.6785 156.037 22.4489 156.955 22.4489C157.665 22.4489 158.227 22.5672 158.638 22.804C159.055 23.036 159.372 23.3011 159.59 23.5994C159.813 23.893 159.986 24.1345 160.109 24.3239H160.251V18.9545H161.927V33.5H160.308V31.8239H160.109C159.986 32.0227 159.81 32.2737 159.583 32.5767C159.356 32.875 159.031 33.1425 158.61 33.3793C158.189 33.6113 157.628 33.7273 156.927 33.7273ZM157.154 32.2216C157.826 32.2216 158.395 32.0464 158.859 31.696C159.323 31.3409 159.675 30.8509 159.917 30.2259C160.158 29.5961 160.279 28.8693 160.279 28.0455C160.279 27.2311 160.161 26.5185 159.924 25.9077C159.687 25.2921 159.337 24.8139 158.873 24.473C158.409 24.1274 157.836 23.9545 157.154 23.9545C156.444 23.9545 155.852 24.1368 155.379 24.5014C154.91 24.8613 154.557 25.3513 154.32 25.9716C154.088 26.5871 153.972 27.2784 153.972 28.0455C153.972 28.822 154.091 29.5275 154.327 30.1619C154.569 30.7917 154.924 31.2936 155.393 31.6676C155.866 32.0369 156.453 32.2216 157.154 32.2216Z" fill="#F5F5F5"/>
</svg>
